<?xml version="1.0" standalone="no"?>
<!DOCTYPE svg PUBLIC "-//W3C//DTD SVG 20010904//EN"
 "http://www.w3.org/TR/2001/REC-SVG-20010904/DTD/svg10.dtd">
<svg version="1.0" xmlns="http://www.w3.org/2000/svg"
 width="256.000000pt" height="256.000000pt" viewBox="0 0 256.000000 256.000000"
 preserveAspectRatio="xMidYMid meet">
<metadata>
Created by potrace 1.11, written by Peter Selinger 2001-2013
</metadata>
<g transform="translate(0.000000,256.000000) scale(0.100000,-0.100000)"
fill="#000000" stroke="none">
<path d="M2257 2383 c-44 -7 -97 -66 -98 -111 -4 -237 -34 -333 -111 -361
-126 -46 -193 -99 -429 -338 -161 -163 -231 -230 -331 -320 -77 -68 -251 -194
-349 -253 -241 -142 -557 -264 -743 -285 -100 -12 -143 -38 -182 -109 -18 -33
-15 -119 7 -153 21 -34 96 -69 189 -89 47 -9 140 -39 206 -65 218 -87 321
-111 489 -114 173 -3 330 34 510 120 95 46 260 144 275 164 3 4 21 18 40 31
137 95 418 384 550 564 72 98 136 244 154 347 15 84 17 115 20 289 3 191 7
213 57 367 34 104 40 174 19 218 -31 62 -173 113 -273 98z"/>
</g>
</svg>
